<svg xmlns="http://www.w3.org/2000/svg" xmlns:lucid="lucid" width="1803" height="1282"><g lucid:page-tab-id="0_0"><path d="M-198.5-258.5h2000v2000h-2000z" fill="#fff"/><path d="M21.5 27.5a6 6 0 0 1 6-6h1748a6 6 0 0 1 6 6v1048a6 6 0 0 1-6 6H27.5a6 6 0 0 1-6-6z" stroke="#5e5e5e" stroke-width="3" fill="#fff"/><path d="M21.5 27.5a6 6 0 0 1 6-6h1748a6 6 0 0 1 6 6v128a6 6 0 0 1-6 6H27.5a6 6 0 0 1-6-6zM21.5 947.5a6 6 0 0 1 6-6h1748a6 6 0 0 1 6 6v308a6 6 0 0 1-6 6H27.5a6 6 0 0 1-6-6z" stroke="#5e5e5e" fill="#fff7a1"/><path d="M181.5 347.5a6 6 0 0 1 6-6h468a6 6 0 0 1 6 6v408a6 6 0 0 1-6 6h-468a6 6 0 0 1-6-6z" stroke="#5e5e5e" stroke-width="3" fill="#fc9432"/><path d="M981.5 347.5a6 6 0 0 1 6-6h608a6 6 0 0 1 6 6v108a6 6 0 0 1-6 6h-608a6 6 0 0 1-6-6zM981.5 627.5a6 6 0 0 1 6-6h608a6 6 0 0 1 6 6v108a6 6 0 0 1-6 6h-608a6 6 0 0 1-6-6z" stroke="#5e5e5e" stroke-width="3" fill="#dfe3e8"/></g></svg>