<svg xmlns="http://www.w3.org/2000/svg" xmlns:lucid="lucid" width="1803" height="1562"><g lucid:page-tab-id="0_0"><path d="M-198.5-258.5h2000v2000h-2000z" fill="#fff"/><path d="M21.5 27.5a6 6 0 0 1 6-6h1748a6 6 0 0 1 6 6v1188a6 6 0 0 1-6 6H27.5a6 6 0 0 1-6-6z" stroke="#5e5e5e" stroke-width="3" fill="#fff"/><path d="M21.5 27.5a6 6 0 0 1 6-6h1748a6 6 0 0 1 6 6v128a6 6 0 0 1-6 6H27.5a6 6 0 0 1-6-6zM21.5 1227.5a6 6 0 0 1 6-6h1748a6 6 0 0 1 6 6v308a6 6 0 0 1-6 6H27.5a6 6 0 0 1-6-6z" stroke="#5e5e5e" fill="#fff7a1"/><path d="M1461.5 427.5a6 6 0 0 1 6-6h228a6 6 0 0 1 6 6v368a6 6 0 0 1-6 6h-228a6 6 0 0 1-6-6z" stroke="#5e5e5e" stroke-width="3" fill="#fc9432"/><path d="M141.5 427.5a6 6 0 0 1 6-6h588a6 6 0 0 1 6 6v108a6 6 0 0 1-6 6h-588a6 6 0 0 1-6-6z" stroke="#5e5e5e" stroke-width="3" fill="#dfe3e8"/><path d="M1161.5 427.5a6 6 0 0 1 6-6h228a6 6 0 0 1 6 6v368a6 6 0 0 1-6 6h-228a6 6 0 0 1-6-6zM861.5 427.5a6 6 0 0 1 6-6h228a6 6 0 0 1 6 6v368a6 6 0 0 1-6 6h-228a6 6 0 0 1-6-6z" stroke="#5e5e5e" stroke-width="3" fill="#fc9432"/><path d="M141.5 627.5a6 6 0 0 1 6-6h588a6 6 0 0 1 6 6v108a6 6 0 0 1-6 6h-588a6 6 0 0 1-6-6z" stroke="#5e5e5e" stroke-width="3" fill="#dfe3e8"/></g></svg>